<?xml version="1.0" standalone="no"?><!DOCTYPE svg PUBLIC "-//W3C//DTD SVG 1.1//EN" "http://www.w3.org/Graphics/SVG/1.1/DTD/svg11.dtd"><svg t="1609681332287" class="icon" viewBox="0 0 1024 1024" version="1.1" xmlns="http://www.w3.org/2000/svg" p-id="1135" xmlns:xlink="http://www.w3.org/1999/xlink" width="200" height="200"><defs><style type="text/css"></style></defs><path d="M248 572.48c-11.52 9.12-23.52 22.56-26.88 39.36-4.8 23.04-0.96 51.84 21.12 74.88 26.88 27.36 68.16 35.04 85.92 36.48 48 3.36 99.36-20.64 138.24-47.52 15.36-10.56 41.28-32.16 65.76-65.28-55.68-28.8-125.28-60.48-199.2-57.6-37.92 1.44-65.28 9.12-84.96 19.68z m705.6 127.2c24.48-57.6 38.4-120.96 38.4-187.68C992 247.52 776.48 32 512 32S32 247.52 32 512s215.52 480 480 480c159.84 0 301.44-78.72 388.8-198.72-82.56-40.8-218.4-108.48-302.4-149.28-39.84 45.6-98.88 91.2-165.6 110.88-41.76 12.48-79.68 17.28-119.04 9.12-39.36-8.16-68.16-26.4-84.96-44.64-8.64-9.6-18.24-21.12-25.44-35.52 0.48 0.96 0.96 1.92 0.96 2.88 0 0-4.32-7.2-7.2-18.24-1.44-5.76-2.88-11.04-3.36-16.8-0.48-3.84-0.48-8.16 0-12-0.48-7.2 0-14.88 1.44-22.56 3.84-19.2 12-41.28 33.12-61.44 46.08-45.12 107.52-47.52 139.68-47.04 47.04 0.48 129.6 21.12 198.72 45.6 19.2-40.8 31.68-84.48 39.36-113.76h-288v-31.2h147.84v-62.4H287.36V315.2h178.56V252.8c0-8.64 1.92-15.36 15.36-15.36h70.08V315.2h194.4v31.2h-194.4v62.4h155.52s-15.84 86.88-64.32 172.8c108 38.4 260.64 97.92 311.04 118.08z" fill="#06B4FD" p-id="1136"></path></svg>