<?xml version="1.0" standalone="no"?><!DOCTYPE svg PUBLIC "-//W3C//DTD SVG 1.1//EN" "http://www.w3.org/Graphics/SVG/1.1/DTD/svg11.dtd"><svg t="1614050473106" class="icon" viewBox="0 0 1024 1024" version="1.1" xmlns="http://www.w3.org/2000/svg" p-id="1375" xmlns:xlink="http://www.w3.org/1999/xlink" width="200" height="200"><defs><style type="text/css"></style></defs><path d="M609.20699413 688.8535072l-44.78970346 0s-5.74470507-3.55401067-5.744704-13.57094933l0-93.96406934-50.51366934 0.64509227 0 104.535504s4.86820907 27.62108053 41.48892694 27.62108053l84.8279904 0L634.47583467 587.80434027 609.20590187 587.80434027l0 101.04916693zM457.62341867 587.80434027l-47.3755296 0s-43.7287392-1.73006933-59.05049814 47.8590752c-5.30700267 33.09072107 4.75469013 45.71422613 6.50768214 49.88931626 1.7770048 4.13033707 15.89808533 28.56852587 51.3661504 28.56852587l73.81885333 0L482.8900768 524.04608747l-25.26774933-0.5555872 0 64.31384z m0 101.04916693l-37.35858987 0s-23.00828907-0.64727573-30.09229653-27.13862613c-3.55401067-11.83651413 0.5555872-23.14582187 2.40026666-28.47356267 1.73006933-5.30918507 9.43733867-20.17032 25.35943787-20.17032l39.69118187 0 0 75.7825088zM511.48152533 37.00473067c-262.32768213 0-474.97125547 212.6675872-474.97125653 474.99526933S249.1549344 986.99526933 511.48152533 986.99526933s474.97125547-212.6675872 474.97125547-474.99526933S773.80920747 37.00473067 511.48152533 37.00473067z m28.9614752 252.08152213c3.78323093-34.54463467 45.08987307-87.55025813 78.20460694-79.9816128 32.99684907 7.52389333 63.11206827 51.3213984 56.99733653 88.98234027-5.95427733 37.72752533-35.92869013 87.50332267-82.56743893 81.41151253-46.56670827-5.95427733-57.11303893-48.1363232-52.63450454-90.41224z m-97.6807168-95.071968c34.89173973 0 63.11206827 40.17472853 63.11206934 89.76496533 0 49.63608107-28.2214208 89.8119008-63.11206934 89.8119008-34.84480427 0-63.11206827-40.17472853-63.11206826-89.8119008-0.0010912-49.5891456 28.26726507-89.76496533 63.11206826-89.76496533zM245.924016 406.7037024s7.4551264-73.91163307 58.58987307-78.48185493c40.63644373-3.48306133 70.54427307 40.98354987 73.65839893 66.41393706 1.91672107 16.49842453 10.49830293 92.0025952-52.6825312 105.59428374-63.0433024 13.54693653-86.4860192-59.3954208-79.5657408-93.52636587z m480.9473632 318.28697707c-34.56755627 81.45626453-160.8855648 39.13559467-160.8855648 39.13559466s-46.58853867-14.95282347-100.63220373-2.97768426c-54.06767893 12.0941152-100.68132267 7.49987947-100.68132374 7.49987946s-63.22886187 1.52377067-81.25105813-78.36506133c-17.9992736-79.9816128 63.11206827-123.77911787 69.18314027-131.23206187 5.97610773-7.56864533 48.08829653-36.20593813 75.08829866-81.4355264 27.13644267-45.27434027 108.27179947-81.4802784 165.38483734 7.47695787 42.1154624 60.36687893 114.27301227 116.21047253 114.27301226 116.21047253s54.04366507 42.2529952 19.52086187 123.68742934z m-10.5452384-185.57808c-69.2038784 1.5717984-72.1346272-46.75117653-72.1346272-81.36457707 0-36.2757952 7.452944-87.574272 63.160096-87.57427093 55.61218987 0 70.58902613 54.34383573 70.58902507 72.3900448 0 18.16191147 7.591568 95.02721493-61.61449387 96.5488032z" fill="#306CFF" p-id="1376"></path></svg>