<svg t="1596724888682" viewBox="0 0 1024 1024" version="1.1" xmlns="http://www.w3.org/2000/svg" p-id="3416" width="200" height="200"><path d="M169.2265625 628.015625c-15.8203125 0-31.640625-15.8203125-31.640625-31.640625V427.625c0-15.8203125 15.8203125-31.640625 31.640625-31.640625s31.640625 15.8203125 31.640625 31.640625v168.75c0 21.09375-10.546875 31.640625-31.640625 31.640625z" p-id="3417"></path><path d="M928.6015625 512c0-42.1875-26.3671875-73.828125-63.28125-84.375V221.9609375c0-68.5546875-52.734375-121.2890625-121.2890625-121.2890625H258.875C190.3203125 100.671875 137.5859375 153.40625 137.5859375 221.9609375v15.8203125c0 15.8203125 15.8203125 31.640625 31.640625 31.640625s31.640625-15.8203125 31.640625-31.640625v-15.8203125c0-31.640625 26.3671875-58.0078125 58.0078125-58.0078125h490.4296875c31.640625 0 58.0078125 26.3671875 58.0078125 58.0078125V427.625c-31.640625 10.546875-63.28125 47.4609375-63.28125 84.375 0 42.1875 26.3671875 73.828125 63.28125 84.375v205.6640625c0 31.640625-26.3671875 58.0078125-58.0078125 58.0078125H258.875c-31.640625 0-58.0078125-26.3671875-58.0078125-58.0078125v-15.8203125c0-15.8203125-15.8203125-31.640625-31.640625-31.640625s-31.640625 15.8203125-31.640625 31.640625v15.8203125c0 68.5546875 52.734375 121.2890625 121.2890625 121.2890625h490.4296875c68.5546875 0 121.2890625-52.734375 121.2890625-121.2890625V601.6484375c36.9140625-15.8203125 58.0078125-47.4609375 58.0078125-89.6484375z m-89.6484375 42.1875c-21.09375 0-42.1875-15.8203125-42.1875-42.1875 0-21.09375 15.8203125-42.1875 42.1875-42.1875s42.1875 15.8203125 42.1875 42.1875c-5.2734375 21.09375-21.09375 42.1875-42.1875 42.1875z" p-id="3418"></path><path d="M633.2890625 364.34375H374.890625c-15.8203125 0-31.640625-10.546875-31.640625-31.640625 0-15.8203125 15.8203125-31.640625 31.640625-31.640625h258.3984375c15.8203125 0 31.640625 15.8203125 31.640625 31.640625 0 21.09375-15.8203125 31.640625-31.640625 31.640625zM633.2890625 543.640625H374.890625c-15.8203125 0-31.640625-10.546875-31.640625-31.640625 0-15.8203125 15.8203125-31.640625 31.640625-31.640625h258.3984375c15.8203125 0 31.640625 15.8203125 31.640625 31.640625 0 21.09375-15.8203125 31.640625-31.640625 31.640625zM633.2890625 722.9375H374.890625c-15.8203125 0-31.640625-15.8203125-31.640625-31.640625s15.8203125-31.640625 31.640625-31.640625h258.3984375c15.8203125 0 31.640625 15.8203125 31.640625 31.640625 0 21.09375-15.8203125 31.640625-31.640625 31.640625z" p-id="3419"></path><path d="M216.6875 722.9375H127.0390625c-15.8203125 0-31.640625-15.8203125-31.640625-31.640625s15.8203125-31.640625 31.640625-31.640625h89.6484375c15.8203125 0 31.640625 15.8203125 31.640625 31.640625 0 21.09375-15.8203125 31.640625-31.640625 31.640625z" p-id="3420"></path><path d="M216.6875 364.34375H127.0390625c-21.09375 0-31.640625-10.546875-31.640625-31.640625 0-15.8203125 10.546875-31.640625 31.640625-31.640625h89.6484375c15.8203125 0 31.640625 15.8203125 31.640625 31.640625 0 21.09375-15.8203125 31.640625-31.640625 31.640625z" p-id="3421"></path></svg>