<?xml version="1.0" standalone="no"?><!DOCTYPE svg PUBLIC "-//W3C//DTD SVG 1.1//EN" "http://www.w3.org/Graphics/SVG/1.1/DTD/svg11.dtd"><svg t="1613971310707" class="icon" viewBox="0 0 1088 1024" version="1.1" xmlns="http://www.w3.org/2000/svg" p-id="1960" xmlns:xlink="http://www.w3.org/1999/xlink" width="212.5" height="200"><defs><style type="text/css"></style></defs><path d="M837.96854442 479.12655075c-21.53502493 35.36373987-57.35565995 62.47289401-100.27341142 74.93092124l-3.25919061 0.97471147c-6.60975957 1.85804345-13.40227811 3.04597219-20.16433721 3.04597219-29.72869063 0-46.54245888-20.10341831-37.49592064-44.8976327 6.57930013-18.12353593 23.91088355-33.41431694 45.04993223-40.51143339 32.74420338-11.94021205 55.64991602-39.17120512 55.64991602-70.87977813 0-42.7349925-41.5775232-77.36769877-92.84123989-77.36769878s-92.81077931 34.63270627-92.81077817 77.36769878v237.22033152c0 57.05106318-33.07926073 107.09638941-82.54585287 135.39347342a186.59626894 186.59626894 0 0 1-92.81077931 24.48961763c-96.67916459 0-175.35663104-71.73265067-175.35663104-159.88309105 0-28.05340615 8.04136733-54.40106723 22.02238066-77.36769992 21.62640441-35.48557881 57.6907173-62.68611243 100.85214662-75.08321962l0.12183894-0.03045945c7.27987427-2.28447915 14.83388587-3.53332793 22.26605738-3.53332793 29.85052957 0 46.75567616 20.19479666 37.67867962 45.08039168-6.12240498 16.87468715-22.66203477 31.37351566-41.94304 39.11028508-2.28447915 0.76149305-4.53849885 1.64482503-6.76205909 2.5586176-30.61202261 12.64078507-51.72061184 38.86660835-51.72061184 69.26541256 0 42.7349925 41.5775232 77.36769877 92.84123875 77.36769877s92.81077931-34.63270627 92.81077931-77.36769877v-237.22033152c0-57.05106318 33.07926073-107.09638941 82.54585287-135.39347343a186.59626894 186.59626894 0 0 1 92.81077817-24.48961763c96.67916459 0 175.35663104 71.73265067 175.35663218 159.88309106a148.03425849 148.03425849 0 0 1-22.02238066 77.3676999M550.55058829 33.0438929C281.37800703 33.0438929 63.19500401 251.22689592 63.19500401 520.39947719s218.18300302 487.35558429 487.35558428 487.35558428 487.35558429-218.18300302 487.35558429-487.35558428S819.72316956 33.0438929 550.55058829 33.0438929" fill="#07C160" p-id="1961"></path></svg>