<svg t="1606126943652" class="icon" viewBox="0 0 1024 1024" version="1.1" xmlns="http://www.w3.org/2000/svg" p-id="1609" width="200" height="200"><path d="M677.81818156 224h-480c-65.45454562 0-122.18181844 56.72727281-122.1818175 122.18181844v480c0 65.45454562 56.72727281 122.18181844 122.1818175 122.1818175h480c65.45454562 0 122.18181844-56.72727281 122.18181844-122.1818175v-480c0-65.45454562-56.72727281-122.18181844-122.18181844-122.18181844z m52.36363688 602.18181844c0 30.54545437-21.81818156 52.36363594-52.36363688 52.36363593h-480c-30.54545437 0-52.36363594-21.81818156-52.36363594-52.36363593v-480c0-30.54545437 21.81818156-52.36363594 52.36363594-52.36363688h480c30.54545437 0 52.36363594 21.81818156 52.36363688 52.36363688v480z" p-id="1610"></path><path d="M826.18181844 75.63636406h-462.54545438c-17.45454563 0-34.90909125 17.45454563-34.90909125 34.90909031s17.45454563 34.90909125 34.90909125 34.90909125h462.54545438c30.54545437 0 52.36363594 21.81818156 52.36363594 52.36363594v462.54545438c0 17.45454563 17.45454563 34.90909125 34.90909125 34.90909125s34.90909125-17.45454563 34.90909031-34.90909125V197.81818156c0-65.45454562-56.72727281-122.18181844-122.1818175-122.1818175zM612.36363594 459.63636406c-13.09090875-13.09090875-30.54545437-13.09090875-43.63636313 0l-174.54545437 178.90909032-78.54545438-82.90909032c-13.09090875-13.09090875-30.54545437-13.09090875-43.63636406 0l-4.36363594 4.36363594c-13.09090875 13.09090875-13.09090875 30.54545437 0 43.63636406l104.72727188 104.72727188c8.72727281 8.72727281 17.45454563 8.72727281 21.8181825 8.72727281 8.72727281 0 17.45454563 0 21.81818156-8.72727281l200.72727281-200.72727188c8.72727281-13.09090875 8.72727281-30.54545437 0-43.63636406l-4.36363687-4.36363594z" p-id="1611"></path></svg>