<?xml version="1.0" standalone="no"?><!DOCTYPE svg PUBLIC "-//W3C//DTD SVG 1.1//EN" "http://www.w3.org/Graphics/SVG/1.1/DTD/svg11.dtd"><svg t="1609457089629" class="icon" viewBox="0 0 1024 1024" version="1.1" xmlns="http://www.w3.org/2000/svg" p-id="1105" xmlns:xlink="http://www.w3.org/1999/xlink" width="200" height="200"><defs><style type="text/css"></style></defs><path d="M392 972.5c-136.5-39-259.5-145.5-319.5-279-43.5-96-43.5-267 0-364.5 45-99 142.5-199.5 243-247.5 120-58.5 273-58.5 393 0 100.5 48 198 150 243 247.5 46.5 106.5 45 256.5-7.5 364.5-99 214.5-343.5 337.5-552 279z" fill="#D90013" p-id="1106"></path><path d="M222.5 801.5c-6-4.5-10.5-105-10.5-222 0-196.5 3-217.5 34.5-264 60-90 109.5-105 348-100.5l210 4.5v120l-214.5 7.5c-168 6-217.5 12-228 30-7.5 12-15 85.5-15 162v138h148.5c156 0 189-13.5 178.5-70.5-4.5-22.5-22.5-27-114-31.5l-108-4.5v-118.5h363l-6 111c-6 127.5-33 180-118.5 222-40.5 22.5-90 27-255 27-112.5 0-208.5-4.5-213-10.5z" fill="#FFFEFE" p-id="1107"></path></svg>