<?xml version="1.0" standalone="no"?><!DOCTYPE svg PUBLIC "-//W3C//DTD SVG 1.1//EN" "http://www.w3.org/Graphics/SVG/1.1/DTD/svg11.dtd"><svg t="1609381669790" class="icon" viewBox="0 0 1024 1024" version="1.1" xmlns="http://www.w3.org/2000/svg" p-id="3150" xmlns:xlink="http://www.w3.org/1999/xlink" width="200" height="200"><defs><style type="text/css"></style></defs><path d="M512 56.88888853C260.55111147 56.88888853 56.88888853 260.55111147 56.88888853 512a454.8380448 454.8380448 0 0 0 311.20497814 431.80942187c22.7555552 3.95946667 31.26613333-9.69386667 31.26613333-21.66328854 0-10.78613333-0.5916448-46.60337813-0.5916448-84.74168853-114.32391147 21.0716448-143.90613333-27.8528-153.0083552-53.47555627-5.1427552-13.1072-27.30666667-53.4755552-46.64888853-64.3072-15.92888853-8.51057813-38.6844448-29.58222187-0.5916448-30.1283552 35.8627552-0.5916448 61.44 32.9955552 69.99608853 46.64888854 40.96 68.8128 106.40497813 49.47057813 132.52835627 37.54666666 4.00497813-29.58222187 15.92888853-49.47057813 29.03608853-60.8483552-101.26222187-11.37777813-207.0755552-50.65386667-207.0755552-224.73386666 0-49.51608853 17.6128-90.43057813 46.64888853-122.33386667-4.55111147-11.37777813-20.48-58.02666667 4.55111147-120.6044448 0 0 38.0928-11.92391147 125.1555552 46.6944a422.34311147 422.34311147 0 0 1 113.77777813-15.3827552c38.6844448 0 77.36888853 5.0972448 113.77777707 15.3372448 87.0172448-59.1644448 125.1555552-46.60337813 125.15555627-46.60337813 25.03111147 62.57777813 9.10222187 109.22666667 4.5511104 120.6044448 28.99057813 31.85777813 46.64888853 72.22613333 46.6488896 122.2883552 0 174.6716448-106.35946667 213.35608853-207.6216896 224.73386666 16.47502187 14.19946667 30.72 41.50613333 30.72 84.1955552 0 60.8483552-0.5916448 109.7728-0.59164374 125.15555627 0 11.92391147 8.55608853 26.12337813 31.31164374 21.57226667A455.83928853 455.83928853 0 0 0 967.11111147 512c0-251.44888853-203.66222187-455.11111147-455.11111147-455.11111147z" fill="#000000" p-id="3151"></path></svg>