<svg t="1606128091305" class="icon" viewBox="0 0 1039 1024" version="1.1" xmlns="http://www.w3.org/2000/svg" p-id="1670" width="200" height="200"><path d="M358.7032642 1028.06000253c-25.74448989 0-46.80816321-21.06367332-46.80816322-46.80816321v-936.16327035c0-25.74448989 21.06367332-46.80816321 46.80816322-46.80816322s46.80816321 21.06367332 46.80816443 46.80816322v936.16327035c0 25.74448989-21.06367332 46.80816321-46.80816443 46.80816321z"  p-id="1671"></path><path d="M756.57265394 1028.06000253h-468.08163456c-102.97795956 0-187.23265407-84.25469452-187.23265408-187.23265407v-655.31428864c0-102.97795956 84.25469452-187.23265407 187.23265408-187.23265407h468.08163456c102.97795956 0 187.23265407 84.25469452 187.23265408 187.23265407v655.31428864c0 102.97795956-84.25469452 187.23265407-187.23265408 187.23265407z m-468.08163456-936.16327035c-51.48897978 0-93.61632643 42.12734666-93.61632765 93.61632764v655.31428864c0 51.48897978 42.12734666 93.61632643 93.61632765 93.61632765h468.08163456c51.48897978 0 93.61632643-42.12734666 93.61632765-93.61632765v-655.31428864c0-51.48897978-42.12734666-93.61632643-93.61632765-93.61632764h-468.08163456z"  p-id="1672"></path></svg>