<?xml version="1.0" standalone="no"?><!DOCTYPE svg PUBLIC "-//W3C//DTD SVG 1.1//EN" "http://www.w3.org/Graphics/SVG/1.1/DTD/svg11.dtd"><svg t="1609381679736" class="icon" viewBox="0 0 1024 1024" version="1.1" xmlns="http://www.w3.org/2000/svg" p-id="3551" xmlns:xlink="http://www.w3.org/1999/xlink" width="200" height="200"><defs><style type="text/css"></style></defs><path d="M511.15400938 929.4284375c-75.1490625 0-144.1284375-23.4553125-188.54062501-58.486875-22.5534375 6.283125-51.4040625 16.3959375-69.61124999 28.935-15.5784375 10.7240625-13.636875 21.661875-10.828125 26.0775 12.328125 19.3959375 211.4840625 12.3853125 268.97999999 6.3440625v-2.8696875z" fill="#FAAD08" p-id="3552"></path><path d="M497.60994688 929.4284375c75.1471875 0 144.1284375-23.4553125 188.540625-58.486875 22.5534375 6.283125 51.403125 16.3959375 69.6121875 28.935 15.5775 10.7240625 13.6340625 21.661875 10.82812499 26.0775-12.328125 19.3959375-211.485 12.3853125-268.98187499 6.3440625v-2.8696875z" fill="#FAAD08" p-id="3553"></path><path d="M498.05807187 476.86625c123.688125-0.82125 222.8146875-24.1715625 256.4034375-33.13125 8.0071875-2.1375 12.290625-5.96625 12.29062501-5.96625 0.028125-1.09875 0.508125-19.6425 0.508125-29.2078125C767.26025937 247.4684375 689.30525937 85.5996875 497.60057187 85.589375 305.89682188 85.5996875 227.93807187 247.4675 227.93807187 408.5609375c0 9.5653125 0.48375 28.1090625 0.51281251 29.2078125 0 0 3.4846875 3.5821875 9.8709375 5.315625 31.010625 8.41875 132.0028125 32.9428125 258.82499999 33.781875h0.91125001z" fill="#000000" p-id="3554"></path><path d="M838.51494687 613.045625c-7.6125-24.455625-18.00375-52.974375-28.5253125-80.3625 0 0-6.0525-0.7453125-9.110625 0.13875-94.415625 27.3796875-208.8496875 44.829375-296.055 43.7765625h-0.90187499C417.20525937 577.6409375 303.54744687 560.3909375 209.44963438 533.279375 205.85432187 532.2453125 198.75557187 532.6840625 198.75557187 532.6840625 188.23400937 560.07125 177.84369688 588.59 170.23213437 613.045625 133.93400937 729.6575 145.69307187 777.91625 154.64807188 778.998125c19.215 2.319375 74.79375-87.7846875 74.79375-87.7846875 0 91.55625 82.80375 232.1409375 272.415 233.43375a673.134375 673.134375 0 0 1 5.0315625 0C696.50150938 923.354375 779.30244687 782.770625 779.30244687 691.214375c0 0 55.57875 90.1040625 74.79656251 87.7846875 8.953125-1.081875 20.7121875-49.340625-15.5840625-165.9534375" fill="#000000" p-id="3555"></path><path d="M439.23369687 329.1096875c-26.15625 1.1625-48.5109375-28.224375-49.9125-65.58375-1.423125-37.3846875 18.616875-68.6315625 44.77875-69.800625 26.1328125-1.1475 48.4715625 28.2271875 49.891875 65.600625 1.4315625 37.3846875-18.6121875 68.625-44.758125 69.78375m193.753125-65.58375c-1.400625 37.359375-23.75625 66.744375-49.9125 65.58375-26.145-1.160625-46.1896875-32.3990625-44.758125-69.7828125 1.4184375-37.37625 23.7571875-66.7509375 49.89-65.600625 26.1646875 1.1690625 46.2046875 32.415 44.7815625 69.7996875" fill="#FFFFFF" p-id="3556"></path><path d="M673.19619687 377.5878125c-6.8653125-16.5084375-75.995625-34.9003125-161.5809375-34.9003125h-0.91874999c-85.584375 0-154.7165625 18.391875-161.58000001 34.9003125a5.85375 5.85375 0 0 0-0.5015625 2.3484375c0 1.1896875 0.3684375 2.263125 0.943125 3.174375 5.7825 9.1546875 82.550625 54.391875 161.139375 54.391875h0.91875c78.5878125 0 155.353125-45.234375 161.1384375-54.39a5.955 5.955 0 0 0 0.939375-3.1828125c0-0.8409375-0.1875-1.6275-0.4978125-2.341875" fill="#FAAD08" p-id="3557"></path><path d="M470.40463438 272.3534375c1.18125 14.893125-6.9159375 28.125-18.061875 29.570625-11.1628125 1.4475-21.1584375-9.4528125-22.34625-24.354375-1.1653125-14.9015625 6.9196875-28.1325 18.046875-29.566875 11.1815625-1.4521875 21.1940625 9.4575 22.36125 24.350625m68.5284375 7.4390625c2.3746875-3.860625 18.5878125-24.159375 52.14375-16.768125 8.8134375 1.940625 12.890625 4.79625 13.75125 5.92125 1.2703125 1.659375 1.618125 4.021875 0.33 7.20375-2.551875 6.3046875-7.816875 6.133125-10.738125 4.899375-1.884375-0.796875-25.25625-14.8959375-46.7859375 6.1434375-1.4803125 1.4484375-4.1296875 1.944375-6.6421875 0.226875-2.510625-1.719375-3.549375-5.2059375-2.05875-7.6265625" fill="#000000" p-id="3558"></path><path d="M504.81182187 579.9640625h-0.9065625c-59.595 0.705-131.855625-7.035-201.83062499-20.55-5.9915625 33.995625-9.609375 76.723125-6.50250001 127.68375 7.846875 128.7975 85.89375 209.7525 206.36062501 210.93375H506.82932187c120.466875-1.18125 198.51375-82.13625 206.36250001-210.93375 3.106875-50.964375-0.5128125-93.691875-6.50625-127.6903125-69.988125 13.5215625-142.2609375 21.26625-201.87375 20.5565625" fill="#FFFFFF" p-id="3559"></path><path d="M335.06994687 572.9525v128.87625s60.8971875 11.9109375 121.90406251 3.665625V586.615625c-38.6484375-2.120625-80.3325-6.8475-121.9040625-13.663125" fill="#EB1C26" p-id="3560"></path><path d="M770.84150937 437.5025s-114.35625 37.8628125-266.00906249 38.9428125h-0.901875c-151.4034375-1.0753125-265.62-38.8134375-266.01-38.9428125l-38.30062501 100.2675c95.799375 30.290625 214.5346875 49.8140625 304.31062501 48.680625l0.89999999-0.001875c89.7825 1.14 208.5-18.384375 304.31250001-48.67875l-38.3015625-100.2675z" fill="#EB1C26" p-id="3561"></path></svg>