<svg t="1606835578104" class="icon" viewBox="0 0 1024 1024" version="1.1" xmlns="http://www.w3.org/2000/svg" p-id="1715" width="200" height="200"><path d="M668.94545469 729.98787875c-13.28484844 0-26.08484812-7.36969688-32.38787906-19.97575781-8.9212125-17.84242406-1.648485-39.66060562 16.19393906-48.58181813l96.58181906-48.29090906c17.84242406-8.9212125 39.66060562-1.74545438 48.58181813 16.19394 8.9212125 17.84242406 1.648485 39.66060562-16.19394 48.58181813l-96.58181813 48.29090906c-5.23636406 2.52121219-10.76363625 3.78181781-16.19393906 3.78181781z m0-144.87272719c-13.28484844 0-26.08484812-7.36969688-32.38787906-19.97575781-8.9212125-17.84242406-1.648485-39.66060562 16.19393906-48.58181812l96.58181906-48.29090907c17.84242406-8.9212125 39.66060562-1.648485 48.58181813 16.19393907 8.9212125 17.84242406 1.648485 39.66060562-16.19394 48.58181906l-96.58181813 48.29090906c-5.23636406 2.52121219-10.76363625 3.78181781-16.19393906 3.78181781z m0-144.77575781c-13.28484844 0-26.08484812-7.36969688-32.38787906-19.97575781-8.9212125-17.84242406-1.648485-39.66060562 16.19393906-48.58181813l96.58181906-48.29090906c17.84242406-8.9212125 39.66060562-1.74545438 48.58181813 16.19394 8.9212125 17.84242406 1.648485 39.66060562-16.19394 48.58181813l-96.58181813 48.29090906c-5.23636406 2.52121219-10.76363625 3.78181781-16.19393906 3.78181781zM367.1757575 717.86666656c-5.43030281 0-10.95757594-1.26060562-16.19393906-3.78181781L254.49696969 665.79393969c-17.84242406-8.9212125-25.11515156-30.64242469-16.19393906-48.58181813 8.9212125-17.84242406 30.73939406-25.11515156 48.58181812-16.19394l96.58181813 48.29090907c17.84242406 8.9212125 25.11515156 30.64242469 16.19393906 48.58181812-6.40000031 12.60606094-19.2 19.97575781-32.48484844 19.97575781z m0-144.77575781c-5.43030281 0-10.95757594-1.26060562-16.19393906-3.78181781l-96.58181813-48.29090907c-17.84242406-8.9212125-25.11515156-30.64242469-16.19394-48.58181812 8.9212125-17.84242406 30.73939406-25.11515156 48.58181813-16.19393906l96.58181812 48.29090906c17.84242406 8.9212125 25.11515156 30.64242469 16.19394 48.58181813-6.30303 12.60606094-19.10303062 19.97575781-32.38787906 19.97575687z m0-144.87272719c-5.43030281 0-10.95757594-1.26060562-16.19393906-3.78181781l-96.58181813-48.29090906c-17.84242406-8.9212125-25.11515156-30.64242469-16.19394-48.58181813 8.9212125-17.84242406 30.73939406-25.11515156 48.58181813-16.19394l96.58181812 48.29090907c17.84242406 8.9212125 25.11515156 30.64242469 16.19394 48.58181906-6.30303 12.60606094-19.10303062 19.97575781-32.38787906 19.97575687z m0 0" p-id="1716"></path><path d="M512.04848469 971.34545469c-10.18181813 0-20.16969656-3.19999969-28.60606032-9.40606032a48.23030344 48.23030344 0 0 1-19.68484875-38.88484875V223.03030344c0-21.13939406 13.67272688-39.75757594 33.84242438-46.06060688L883.83030313 56.24242437c14.64242438-4.55757563 30.64242469-1.93939406 42.95757562 7.17575719A48.23030344 48.23030344 0 0 1 946.4727275 102.30303031v700.02424219c0 21.13939406-13.67272688 39.75757594-33.84242438 46.06060594l-386.23030312 120.72727312c-4.654545 1.45454531-9.50303063 2.23030312-14.35151531 2.23030313z m48.29090906-712.82424281v598.78787906l289.648485-90.47272688v-598.78787906l-289.648485 90.47272688z m0 0" p-id="1717"></path><path d="M512.04848469 971.34545469c-4.84848469 0-9.69696938-0.77575781-14.44848469-2.23030313L111.46666625 848.38787844c-20.16969656-6.20606063-33.93939375-24.92121188-33.93939375-46.06060594V102.39999969c0-15.32121187 7.2727275-29.76969656 19.68484875-38.88484782a48.23878781 48.23878781 0 0 1 42.95757562-7.17575812l386.23030313 120.72727312a48.18545437 48.18545437 0 0 1 33.84242438 46.06060594V923.151515c0 15.32121187-7.2727275 29.76969656-19.68484875 38.88484875-8.26666688 6.06060562-18.25454531 9.32121188-28.50909094 9.30909094zM174.10909063 766.83636406l289.648485 90.47272688v-598.78787906L174.10909063 168.048485v598.78787906z m-1e-8 0" p-id="1718"></path></svg>